<mxfile host="app.diagrams.net" modified="2024-07-19T17:13:53.357Z" agent="Mozilla/5.0 (Windows NT 10.0; Win64; x64) AppleWebKit/537.36 (KHTML, like Gecko) Chrome/126.0.0.0 Safari/537.36" etag="xShleP4UbigMfRuFpzNl" version="24.7.2" type="github">
  <diagram name="Halaman-1" id="qRmfY7X26hOiyGMwEyqt">
    <mxGraphModel dx="5280" dy="4913" grid="0" gridSize="10" guides="1" tooltips="1" connect="1" arrows="1" fold="1" page="1" pageScale="1" pageWidth="4681" pageHeight="3300" math="0" shadow="0">
      <root>
        <mxCell id="0" />
        <mxCell id="1" parent="0" />
        <mxCell id="vDbWJOYFkGnoNRjPXN_l-1" value="&lt;h1 style=&quot;margin-top: 0px;&quot;&gt;&lt;font style=&quot;font-size: 54px;&quot;&gt;Laporan analisis terkait komentas dan cara cleansing data&lt;/font&gt;&lt;/h1&gt;" style="text;html=1;whiteSpace=wrap;overflow=hidden;rounded=0;" vertex="1" parent="1">
          <mxGeometry x="65" y="71" width="1504" height="88" as="geometry" />
        </mxCell>
        <mxCell id="vDbWJOYFkGnoNRjPXN_l-4" value="&lt;font style=&quot;font-size: 40px;&quot;&gt;Di era sekarang , data teks memainkan peran cukup crucial karena bisa menjadi bahan analisi untuk sebuah company ataiu indivdu itu sendiri&lt;/font&gt;" style="text;html=1;align=left;verticalAlign=middle;whiteSpace=wrap;rounded=0;" vertex="1" parent="1">
          <mxGeometry x="80" y="256" width="1283" height="159" as="geometry" />
        </mxCell>
        <mxCell id="vDbWJOYFkGnoNRjPXN_l-5" value="&lt;span style=&quot;font-size: 40px;&quot;&gt;Pendahuluan&lt;/span&gt;" style="text;html=1;align=center;verticalAlign=middle;whiteSpace=wrap;rounded=0;" vertex="1" parent="1">
          <mxGeometry x="65" y="234" width="265" height="30" as="geometry" />
        </mxCell>
        <mxCell id="vDbWJOYFkGnoNRjPXN_l-6" value="&lt;span style=&quot;font-size: 40px;&quot;&gt;Latar Belakang&lt;/span&gt;" style="text;html=1;align=center;verticalAlign=middle;whiteSpace=wrap;rounded=0;" vertex="1" parent="1">
          <mxGeometry x="80" y="481" width="277" height="30" as="geometry" />
        </mxCell>
        <mxCell id="vDbWJOYFkGnoNRjPXN_l-7" value="&lt;span style=&quot;font-size: 40px;&quot;&gt;- &lt;font color=&quot;#ff2200&quot;&gt;Pentingnya pembersihan teks&lt;/font&gt;&lt;/span&gt;&lt;blockquote style=&quot;margin: 0 0 0 40px; border: none; padding: 0px;&quot;&gt;&lt;div&gt;&lt;font style=&quot;font-size: 35px;&quot;&gt;Pembersihan teks adalah proses menghilangkan karakter yang tidak diinginkan seperti tanda baca, simbol, dan karakter khusus lainnya dari data teks. Langkah ini penting untuk meningkatkan kualitas data, sehingga lebih mudah dianalisis dan diolah lebih lanjut.&lt;/font&gt;&lt;/div&gt;&lt;/blockquote&gt;&lt;div&gt;&lt;div&gt;&lt;span style=&quot;font-size: 40px;&quot;&gt;&lt;br&gt;&lt;/span&gt;&lt;/div&gt;&lt;div&gt;&lt;span style=&quot;font-size: 40px;&quot;&gt;- &lt;font color=&quot;#ff2403&quot;&gt;Kebutuhan akan API yang andal&lt;/font&gt;&lt;/span&gt;&lt;/div&gt;&lt;/div&gt;&lt;blockquote style=&quot;margin: 0 0 0 40px; border: none; padding: 0px;&quot;&gt;&lt;div&gt;&lt;div&gt;&lt;font style=&quot;font-size: 35px;&quot;&gt;Dalam banyak kasus, data teks diterima dari berbagai sumber seperti formulir web, dokumen, atau bahkan pesan email. API yang andal dan efisien diperlukan untuk menangani berbagai jenis input ini, membersihkan teks, dan menyimpan hasil yang telah diolah.&lt;/font&gt;&lt;/div&gt;&lt;/div&gt;&lt;/blockquote&gt;&lt;div&gt;&lt;div&gt;&lt;span style=&quot;font-size: 40px;&quot;&gt;&lt;br&gt;&lt;/span&gt;&lt;/div&gt;&lt;div&gt;&lt;span style=&quot;font-size: 40px;&quot;&gt;- &lt;font color=&quot;#ff0800&quot;&gt;Penggunaan Database SQlite&lt;/font&gt;&lt;/span&gt;&lt;/div&gt;&lt;/div&gt;&lt;blockquote style=&quot;margin: 0 0 0 40px; border: none; padding: 0px;&quot;&gt;&lt;div&gt;&lt;font style=&quot;font-size: 35px;&quot;&gt;SQLite dipilih sebagai solusi penyimpanan data karena kehandalannya, kemudahan penggunaan, dan dukungan untuk berbagai operasi database dasar. SQLite memungkinkan penyimpanan data teks yang telah dibersihkan secara terstruktur dan mudah diakses.&lt;/font&gt;&lt;/div&gt;&lt;/blockquote&gt;&lt;div&gt;&lt;span style=&quot;font-size: 40px;&quot;&gt;&lt;font color=&quot;#ff0800&quot;&gt;&lt;br&gt;&lt;/font&gt;&lt;/span&gt;&lt;/div&gt;" style="text;html=1;align=left;verticalAlign=middle;whiteSpace=wrap;rounded=0;" vertex="1" parent="1">
          <mxGeometry x="80" y="543" width="1283" height="797" as="geometry" />
        </mxCell>
        <mxCell id="vDbWJOYFkGnoNRjPXN_l-9" value="&lt;h3 style=&quot;font-size: 35px;&quot;&gt;&lt;font style=&quot;font-size: 35px;&quot;&gt;Tujuan Proyek&lt;/font&gt;&lt;/h3&gt;&lt;ol style=&quot;font-size: 35px;&quot;&gt;&lt;li&gt;&lt;p&gt;&lt;font style=&quot;font-size: 35px;&quot;&gt;&lt;strong&gt;Mengembangkan API&lt;/strong&gt;:&lt;br&gt;Membangun API menggunakan Flask dengan dua endpoint utama: satu untuk menerima input teks dan satu lagi untuk menerima file. API ini akan memproses input yang diterima, melakukan pembersihan teks, dan menyimpan hasilnya ke dalam database SQLite.&lt;/font&gt;&lt;/p&gt;&lt;/li&gt;&lt;li&gt;&lt;p&gt;&lt;font style=&quot;font-size: 35px;&quot;&gt;&lt;strong&gt;Menyediakan Dokumentasi API&lt;/strong&gt;:&lt;br&gt;Menggunakan Flask-RESTPlus untuk mendokumentasikan endpoint API dan menyediakan antarmuka Swagger UI yang memudahkan pengguna dalam memahami dan menggunakan API.&lt;/font&gt;&lt;/p&gt;&lt;/li&gt;&lt;li&gt;&lt;p&gt;&lt;font style=&quot;font-size: 35px;&quot;&gt;&lt;strong&gt;Menyimpan Data dengan Aman&lt;/strong&gt;:&lt;br&gt;Menyimpan teks yang telah dibersihkan dalam database SQLite untuk memastikan data tersimpan dengan aman dan dapat diakses untuk analisis lebih lanjut.&lt;/font&gt;&lt;/p&gt;&lt;/li&gt;&lt;/ol&gt;&lt;h3 style=&quot;font-size: 35px;&quot;&gt;&lt;font style=&quot;font-size: 35px;&quot;&gt;Metode&lt;/font&gt;&lt;/h3&gt;&lt;ol style=&quot;font-size: 35px;&quot;&gt;&lt;li&gt;&lt;p&gt;&lt;font style=&quot;font-size: 35px;&quot;&gt;&lt;strong&gt;Penerimaan Input&lt;/strong&gt;:&lt;br&gt;API akan menerima input dalam dua bentuk: teks mentah yang dikirimkan dalam format JSON dan file yang diunggah oleh pengguna.&lt;/font&gt;&lt;/p&gt;&lt;/li&gt;&lt;li&gt;&lt;p&gt;&lt;font style=&quot;font-size: 35px;&quot;&gt;&lt;strong&gt;Pembersihan Teks&lt;/strong&gt;:&lt;br&gt;Proses pembersihan teks akan dilakukan dengan menggunakan fungsi khusus yang menghapus karakter yang tidak diinginkan dari teks mentah.&lt;/font&gt;&lt;/p&gt;&lt;/li&gt;&lt;li&gt;&lt;p&gt;&lt;font style=&quot;font-size: 35px;&quot;&gt;&lt;strong&gt;Penyimpanan Data&lt;/strong&gt;:&lt;br&gt;Teks yang telah dibersihkan akan disimpan dalam database SQLite untuk memudahkan pengelolaan dan analisis data.&lt;/font&gt;&lt;/p&gt;&lt;/li&gt;&lt;/ol&gt;&lt;h3 style=&quot;font-size: 35px;&quot;&gt;&lt;font style=&quot;font-size: 35px;&quot;&gt;Kesimpulan&lt;/font&gt;&lt;/h3&gt;&lt;p style=&quot;font-size: 35px;&quot;&gt;&lt;font style=&quot;font-size: 35px;&quot;&gt;Dengan mengembangkan API yang mampu menerima dan memproses data teks dengan efisien, proyek ini diharapkan dapat memberikan solusi praktis untuk mengatasi masalah noise dalam data teks. Implementasi ini tidak hanya meningkatkan kualitas data, tetapi juga mempermudah penyimpanan dan akses data untuk keperluan analisis lebih lanjut.&lt;/font&gt;&lt;/p&gt;" style="text;whiteSpace=wrap;html=1;" vertex="1" parent="1">
          <mxGeometry x="93" y="1358" width="2924" height="1282" as="geometry" />
        </mxCell>
      </root>
    </mxGraphModel>
  </diagram>
</mxfile>
